<svg width="40" height="40" viewBox="0 0 40 40" fill="none" xmlns="http://www.w3.org/2000/svg">
<mask id="mask0" mask-type="alpha" maskUnits="userSpaceOnUse" x="10" y="10" width="20" height="20">
<path d="M26 26C26.5304 26 27.0391 26.2107 27.4142 26.5858C27.7893 26.9609 28 27.4696 28 28C28 28.5304 27.7893 29.0391 27.4142 29.4142C27.0391 29.7893 26.5304 30 26 30C24.89 30 24 29.1 24 28C24 26.89 24.89 26 26 26ZM10 10H13.27L14.21 12H29C29.2652 12 29.5196 12.1054 29.7071 12.2929C29.8946 12.4804 30 12.7348 30 13C30 13.17 29.95 13.34 29.88 13.5L26.3 19.97C25.96 20.58 25.3 21 24.55 21H17.1L16.2 22.63L16.17 22.75C16.17 22.8163 16.1963 22.8799 16.2432 22.9268C16.2901 22.9737 16.3537 23 16.42 23H28V25H16C14.89 25 14 24.1 14 23C14 22.65 14.09 22.32 14.24 22.04L15.6 19.59L12 12H10V10ZM16 26C16.5304 26 17.0391 26.2107 17.4142 26.5858C17.7893 26.9609 18 27.4696 18 28C18 28.5304 17.7893 29.0391 17.4142 29.4142C17.0391 29.7893 16.5304 30 16 30C14.89 30 14 29.1 14 28C14 26.89 14.89 26 16 26ZM25 19L27.78 14H15.14L17.5 19H25Z" fill="#9E9E9E"/>
</mask>
<g mask="url(#mask0)">
<rect width="40" height="40" fill="#ADADAD"/>
</g>
</svg>
