<svg width="24" height="24" viewBox="0 0 24 24" fill="none" xmlns="http://www.w3.org/2000/svg">
<path d="M21.8182 0H2.18182C0.981818 0 0 0.981818 0 2.18182V21.8182C0 23.0182 0.981818 24 2.18182 24H13.0909V14.1818H9.81818V10.9091H13.0909V9.16364C13.0909 5.78182 14.7273 4.36364 17.4545 4.36364C18.7636 4.36364 19.5273 4.47273 19.8545 4.47273V7.63636H18C16.8 7.63636 16.3636 8.29091 16.3636 9.49091V10.9091H19.8545L19.4182 14.1818H16.3636V24H21.8182C23.0182 24 24 23.0182 24 21.8182V2.18182C24 0.981818 23.0182 0 21.8182 0Z" fill="#39667A"/>
</svg>
