<svg width="24" height="24" viewBox="0 0 24 24" fill="none" xmlns="http://www.w3.org/2000/svg">
<path d="M6.66667 0C2.93333 0 0 2.93333 0 6.66667V17.3333C0 21.0667 2.93333 24 6.66667 24H17.3333C21.0667 24 24 21.0667 24 17.3333V6.66667C24 2.93333 21.0667 0 17.3333 0H6.66667ZM20 2.66667C20.8 2.66667 21.3333 3.2 21.3333 4C21.3333 4.8 20.8 5.33333 20 5.33333C19.2 5.33333 18.6667 4.8 18.6667 4C18.6667 3.2 19.2 2.66667 20 2.66667ZM12 5.33333C15.7333 5.33333 18.6667 8.26667 18.6667 12C18.6667 15.7333 15.7333 18.6667 12 18.6667C8.26667 18.6667 5.33333 15.7333 5.33333 12C5.33333 8.26667 8.26667 5.33333 12 5.33333ZM12 8C9.73333 8 8 9.73333 8 12C8 14.2667 9.73333 16 12 16C14.2667 16 16 14.2667 16 12C16 9.73333 14.2667 8 12 8Z" fill="#366880"/>
</svg>
