<svg width="9" height="8" viewBox="0 0 9 8" fill="none" xmlns="http://www.w3.org/2000/svg">
<path d="M4 7.5C3.86739 7.63261 3.68754 7.70711 3.5 7.70711C3.31246 7.70711 3.13261 7.63261 3 7.5L1 5.5C0.867392 5.36739 0.792893 5.18754 0.792893 5C0.792893 4.81246 0.867392 4.63261 1 4.5C1.13261 4.36739 1.31246 4.29289 1.5 4.29289C1.68754 4.29289 1.86739 4.36739 2 4.5L3.5 6L7 2.5C7.13261 2.36739 7.31246 2.29289 7.5 2.29289C7.68754 2.29289 7.86739 2.36739 8 2.5C8.13261 2.63261 8.20711 2.81246 8.20711 3C8.20711 3.18754 8.13261 3.36739 8 3.5L4 7.5Z" fill="#9DAFBD"/>
</svg>
