<svg width="16" height="16" viewBox="0 0 16 16" fill="none" xmlns="http://www.w3.org/2000/svg">
<path d="M7 15C6.73478 15.2652 6.37507 15.4142 6 15.4142C5.62493 15.4142 5.26522 15.2652 5 15L1 11C0.734784 10.7348 0.585786 10.3751 0.585786 10C0.585786 9.62493 0.734784 9.26522 1 9C1.26522 8.73478 1.62493 8.58579 2 8.58579C2.37507 8.58579 2.73478 8.73478 3 9L6 12L13 5C13.2652 4.73478 13.6249 4.58579 14 4.58579C14.3751 4.58579 14.7348 4.73478 15 5C15.2652 5.26522 15.4142 5.62493 15.4142 6C15.4142 6.37507 15.2652 6.73478 15 7L7 15Z" fill="#9DAFBD"/>
</svg>
