<svg width="105" height="60" viewBox="0 0 105 60" fill="none" xmlns="http://www.w3.org/2000/svg">
<g opacity="0.4">
<path d="M54.4635 53.891C55.5591 53.546 57.2026 53.546 58.4694 54.2705C60.7292 55.5816 59.7362 57.0307 58.0243 58.0312L54.977 59.7908C54.4292 60.1013 53.4705 60.0668 52.8542 59.6873L44.8424 55.0295C44.2261 54.65 44.1576 54.098 44.7054 53.7875L47.3761 52.2349C48.8141 51.4068 51.1766 50.4063 53.5733 51.8209C54.6689 52.4764 54.8743 53.1664 54.4292 53.822L54.4635 53.891ZM49.1907 54.3395L50.4575 55.064L51.245 54.581C51.6559 54.3395 51.7586 54.029 51.2793 53.753C50.9026 53.5115 50.3891 53.615 49.9097 53.8565L49.1907 54.3395ZM52.6488 56.3751L54.0526 57.1687L54.9428 56.6511C55.4222 56.3751 55.4906 56.0646 55.0113 55.7886C54.4635 55.4781 53.7787 55.7196 53.4021 55.9266L52.6488 56.3751Z" fill="white"/>
<path d="M65.1449 50.3713L61.2759 52.6139C61.858 52.89 62.7482 52.7865 63.2617 52.4759C63.6041 52.2689 63.7753 52.0274 63.8096 51.8204C63.8438 51.6479 64.0835 51.4754 64.3916 51.4409L65.9666 51.1994C66.5829 51.0959 67.2677 51.4409 67.2677 51.8204C67.2677 52.5449 66.7198 53.304 65.6242 53.925C63.7068 55.0291 60.4884 55.2706 57.7836 53.718C55.2499 52.2344 55.3184 50.3713 57.3727 49.1982C59.4612 47.9907 62.6112 48.1977 65.0422 49.6123C65.4188 49.8193 65.4873 50.1643 65.1449 50.3713ZM61.4471 50.4058C60.8993 50.0953 60.146 50.0953 59.564 50.4058C58.9134 50.7853 59.0846 51.2684 59.4612 51.5444L61.4471 50.4058Z" fill="white"/>
<path d="M72.9523 49.6813C70.9665 50.8198 67.7138 50.9923 65.0774 49.4743C62.4753 47.9562 62.7835 46.0586 64.7693 44.92C66.7551 43.7469 70.0078 43.5744 72.61 45.0925C75.2463 46.6106 74.9382 48.5082 72.9523 49.6813ZM67.7481 47.8872C68.4671 48.3012 69.4942 48.3702 70.1105 48.0252C70.7268 47.6457 70.6241 47.0591 69.9051 46.6451C69.2546 46.2656 68.1932 46.1966 67.5426 46.5416C66.9263 46.8866 67.0975 47.5076 67.7481 47.8872Z" fill="white"/>
<path d="M69.9735 42.1946L71.3431 41.4011C71.754 41.1595 72.4387 41.194 72.9181 41.4701H72.9523C72.7126 40.9525 72.9523 40.2625 73.8083 39.7795C75.6572 38.7099 77.8485 39.3999 79.355 40.2625L83.1554 42.4706C83.6348 42.7466 83.669 43.1607 83.2582 43.3677L81.7859 44.2302C81.375 44.4717 80.6903 44.4372 80.2109 44.1612L76.9925 42.2981C76.2392 41.8496 75.7257 41.8151 75.3148 42.0566C74.9382 42.2636 75.0409 42.6431 75.6914 43.0571L78.9098 44.9203C79.3892 45.1963 79.4234 45.6103 79.0126 45.8173L77.5745 46.6454C77.1637 46.8869 76.4789 46.8524 75.9996 46.5764L70.042 43.1262C69.6312 42.8501 69.5627 42.4361 69.9735 42.1946Z" fill="white"/>
<path d="M75.1433 35.3289C75.9651 34.8458 77.4031 34.9149 78.3275 35.4669L85.8601 39.8486C86.8187 40.4007 86.9214 41.2287 86.0997 41.7117C85.278 42.1948 83.84 42.1258 82.9155 41.5737L75.383 37.192C74.4243 36.6054 74.3216 35.7774 75.1433 35.3289Z" fill="white"/>
<path d="M78.7729 33.1892C79.5604 32.7062 80.9642 32.7752 81.8887 33.3272L86.1685 35.8114C87.0929 36.3634 87.1957 37.157 86.4082 37.64C85.6207 38.123 84.2169 38.054 83.2924 37.502L79.0126 35.0178C78.0882 34.4658 77.9854 33.6723 78.7729 33.1892Z" fill="white"/>
<path d="M85.0043 33.4309L86.3739 32.6374C86.7847 32.3959 87.4695 32.4304 87.9488 32.7064H87.9831C87.7434 32.1889 87.9831 31.4988 88.839 31.0158C90.6879 29.9462 92.8792 30.6363 94.3857 31.4988L98.1862 33.7069C98.6655 33.983 98.6998 34.397 98.2889 34.604L96.8167 35.4665C96.4058 35.7081 95.721 35.6736 95.2417 35.3975L92.0232 33.5344C91.27 33.0859 90.7564 33.0514 90.3456 33.2929C89.9689 33.4999 90.0716 33.8795 90.7222 34.2935L93.9406 36.1566C94.42 36.4326 94.4542 36.8466 94.0433 37.0536L92.6053 37.8817C92.1944 38.1232 91.5097 38.0887 91.0303 37.8127L85.0728 34.3625C84.6619 34.0865 84.5934 33.6724 85.0043 33.4309Z" fill="white"/>
<path d="M102.877 28.3938L99.0081 30.6364C99.5901 30.9124 100.48 30.8089 100.994 30.4984C101.336 30.2914 101.507 30.0499 101.542 29.8429C101.576 29.6703 101.816 29.4978 102.124 29.4633L103.699 29.2218C104.315 29.1183 105 29.4633 105 29.8429C105 30.5674 104.452 31.3264 103.356 31.9475C101.439 33.0515 98.2206 33.2931 95.5157 31.7405C92.9821 30.2569 93.0505 28.3938 95.1049 27.2207C97.1934 26.0131 100.343 26.2201 102.774 27.6347C103.185 27.8417 103.219 28.1868 102.877 28.3938ZM99.2135 28.4283C98.6657 28.1178 97.9124 28.1178 97.3304 28.4283C96.6798 28.8078 96.851 29.2908 97.2277 29.5668L99.2135 28.4283Z" fill="white"/>
</g>
<g opacity="0.4">
<path d="M42.1023 45.3C41.5545 44.9894 40.5273 45.1274 39.6371 45.645C38.7126 46.1625 38.4387 46.7835 39.0208 47.0941C39.6029 47.4046 40.63 47.2666 41.5202 46.7145C42.4104 46.2315 42.6501 45.645 42.1023 45.3Z" fill="white"/>
<path d="M36.5221 42.1605L36.1455 41.9189L33.2009 43.644L33.5776 43.8511C34.1254 44.1961 35.0156 44.2651 36.1455 43.6095C37.2411 42.954 37.0699 42.471 36.5221 42.1605Z" fill="white"/>
<path d="M77.2322 26.8068C74.9382 25.4958 71.5144 25.3233 69.5285 26.4963C69.3231 26.5998 69.1861 26.7378 69.015 26.8413L68.9807 26.8758C68.8438 27.0139 68.7068 27.1174 68.6041 27.2554L67.6454 28.2559C66.9949 28.946 65.3172 29.0495 64.1531 28.4629L60.5238 26.5998L60.558 26.6343C60.4895 26.5998 60.421 26.5308 60.3526 26.4963C60.2156 26.3928 60.0787 26.3238 59.9075 26.2203C51.5532 21.3555 45.356 22.8046 44.2946 22.7356C43.7126 22.7011 44.3289 19.4924 38.6795 16.1802C34.9132 14.0066 28.3052 12.5575 22.0737 16.1802L5.22828 26.0478C4.92014 26.2203 4.64623 26.4273 4.44079 26.6688C2.21528 27.8764 2.45495 30.0845 4.92014 31.5336L35.9404 49.5782C38.3713 50.9927 42.0691 51.1652 44.1919 49.9232L61.5509 39.8141C64.6324 38.02 65.9335 35.5358 65.5569 32.9827L66.002 31.7061C66.3443 30.7401 68.2275 30.3605 69.8024 30.9471L71.2062 31.4991C73.3975 32.3272 76.1366 32.2927 77.8143 31.3266C79.7659 30.1535 79.5262 28.1524 77.2322 26.8068ZM23.409 39.3311C22.9297 39.055 22.7243 38.641 22.8954 38.1925L24.2308 38.02C24.0938 38.296 24.1623 38.6065 24.4019 38.7445C24.6416 38.8825 24.984 38.917 25.3949 38.6755C25.7715 38.4685 25.6345 38.227 25.4291 37.8475C25.2237 37.5025 25.121 37.0539 26.0454 36.5364C27.1753 35.8809 28.2709 35.9844 28.8872 36.3639C29.2638 36.5709 29.4693 36.9504 29.3323 37.3644L27.997 37.537C28.134 37.2954 28.0655 37.0539 27.8601 36.9504C27.6546 36.8469 27.3122 36.7434 26.9014 36.9849C26.559 37.1919 26.6617 37.3645 26.7987 37.606C27.0383 37.9855 27.3122 38.503 26.2851 39.0895C25.1894 39.7451 24.0596 39.7106 23.409 39.3311ZM25.8742 40.6076L29.8801 38.296L28.9557 37.744L29.9829 37.1229L32.6192 38.6755L31.5921 39.2966L30.6676 38.7445L26.6617 41.0562L25.8742 40.6076ZM29.1611 42.6778C28.3052 42.1602 28.5791 41.4012 29.8117 40.6766L32.9616 38.848L33.7491 39.2966L30.7019 41.0562C30.154 41.3667 29.8459 41.7462 30.291 42.0222C30.7361 42.2982 31.4209 42.0912 31.9345 41.7807L34.9817 40.0211L35.7692 40.4696L32.6192 42.2982C31.4209 43.0228 30.0171 43.1953 29.1611 42.6778ZM32.585 44.5064L31.3524 43.7818L36.3855 40.8492L37.5838 41.5392C38.5083 42.0912 38.8507 42.9883 36.9675 44.0923C35.1871 45.1274 33.4752 45.0239 32.585 44.5064ZM35.735 46.335L34.9475 45.8864L39.9806 42.9538L40.768 43.4023L35.735 46.335ZM42.343 47.232C40.7338 48.1636 38.9192 48.3361 37.892 47.7495C36.8648 47.163 37.2072 46.0935 38.7822 45.1619C40.3914 44.2303 42.1718 44.0578 43.199 44.6789C44.2262 45.2654 43.9865 46.3005 42.343 47.232Z" fill="white"/>
</g>
<path d="M66.6174 12.4882C66.412 12.5917 66.275 12.7297 66.1038 12.8332L66.0696 12.8677C65.9326 13.0057 65.7957 13.1092 65.693 13.2472L64.7343 14.2478C64.0837 14.9378 62.406 15.0413 61.2419 14.4548L57.6126 12.6262L57.6469 12.6607C57.5784 12.6262 57.5099 12.5572 57.4414 12.5227C57.3045 12.4192 57.1675 12.3502 56.9963 12.2467C48.6421 7.38189 42.4449 8.83098 41.3835 8.76197C40.8014 8.72747 41.4177 5.51879 35.7683 2.2066C32.0021 0.0329698 25.394 -1.41611 19.1626 2.2066L2.31715 12.0397C2.009 12.2122 1.73509 12.4192 1.52966 12.6607C-0.695854 13.8683 -0.456183 16.0764 2.009 17.5255L33.0293 35.57C35.4602 36.9846 39.158 37.1571 41.2808 35.915L58.6398 25.806C61.7213 24.0119 63.0223 21.5277 62.6457 18.9746L63.0908 17.698C63.4332 16.7319 65.3163 16.3524 66.8913 16.9389L68.2951 17.491C70.4864 18.319 73.2255 18.2845 74.9032 17.3185C76.889 16.1799 76.6151 14.1788 74.3553 12.8332C72.0613 11.4876 68.6032 11.3496 66.6174 12.4882Z" fill="white"/>
</svg>
